<?xml version="1.0" encoding="UTF-8"?>
<svg width="190px" height="210px" viewBox="0 0 190 210" version="1.1" xmlns="http://www.w3.org/2000/svg" xmlns:xlink="http://www.w3.org/1999/xlink">
    <title>Group</title>
    <g id="Page-1" stroke="none" stroke-width="1" fill="none" fill-rule="evenodd">
        <g id="LOGO_SKGD" transform="translate(-1102.000000, -125.000000)" fill="#000000" fill-rule="nonzero">
            <g id="LOGO_TYPO" transform="translate(240.000000, 125.000000)">
                <g id="Group" transform="translate(862.000000, 0.000000)">
                    <path d="M0.07,153.53 C0.07,147.87 2.09,143.08 6.13,139.13 C10.17,135.19 15,133.22 20.62,133.22 L53.83,133.22 L53.83,149.16 L20.89,149.16 C19.66,149.16 18.65,149.59 17.86,150.44 C17.07,151.3 16.67,152.24 16.67,153.27 C16.67,154.47 17.06,155.46 17.86,156.23 C18.65,157 19.66,157.39 20.89,157.39 L46.45,157.39 C50.32,157.39 53.61,157.18 56.33,156.75 C59.06,156.32 62.17,155.51 65.69,154.31 C69.21,153.11 71.75,152.25 73.33,151.74 L114.97,137.85 C121.65,135.62 126.26,134.29 128.81,133.86 C131.36,133.44 136.06,133.22 142.91,133.22 L169,133.22 C174.8,133.22 179.72,135.19 183.76,139.13 C187.8,143.08 189.82,147.79 189.82,153.27 C189.82,158.93 187.8,163.73 183.76,167.67 C179.72,171.62 174.8,173.58 169,173.58 L137.38,173.58 L137.38,157.64 L169,157.64 C170.23,157.64 171.24,157.25 172.03,156.48 C172.82,155.71 173.22,154.72 173.22,153.52 C173.22,152.32 172.82,151.33 172.03,150.56 C171.24,149.79 170.23,149.4 169,149.4 L143.44,149.4 C139.75,149.4 136.72,149.53 134.35,149.79 C131.98,150.05 129.3,150.69 126.31,151.72 C123.32,152.75 121.22,153.44 119.98,153.78 L78.6,167.67 C71.05,170.24 63.58,171.87 56.2,172.56 C48.82,173.25 39.77,173.59 29.06,173.59 L20.63,173.59 C15.01,173.59 10.18,171.62 6.14,167.68 C2.09,163.73 0.07,159.02 0.07,153.53 Z" id="Path"></path>
                    <polygon id="Path" points="0.07 128.08 0.07 112.39 81.28 112.39 0.07 103.39 0.07 87.7 92.95 97.99 189.81 87.7 189.81 103.39 104.89 112.39 189.81 112.39 189.81 128.08"></polygon>
                    <path d="M0.07,65.07 C0.07,59.41 2.09,54.62 6.13,50.67 C10.17,46.73 15.09,44.76 20.89,44.76 L37.49,44.76 L37.49,60.7 L20.89,60.7 C19.66,60.7 18.65,61.13 17.86,61.98 C17.07,62.84 16.67,63.78 16.67,64.81 C16.67,66.01 17.06,67 17.86,67.77 C18.65,68.54 19.66,68.93 20.89,68.93 L169,68.93 C170.23,68.93 171.24,68.54 172.03,67.77 C172.82,67 173.22,66.02 173.22,64.81 C173.22,63.78 172.82,62.84 172.03,61.98 C171.24,61.13 170.23,60.7 169,60.7 L103.38,60.7 L103.38,64.81 L86.51,64.81 L86.51,44.75 L169,44.75 C174.8,44.75 179.72,46.72 183.76,50.66 C187.8,54.61 189.82,59.4 189.82,65.06 C189.82,70.55 187.8,75.26 183.76,79.2 C179.72,83.15 174.8,85.11 169,85.11 L20.89,85.11 C15.09,85.11 10.18,83.14 6.13,79.2 C2.09,75.28 0.07,70.56 0.07,65.07 Z" id="Path"></path>
                    <path d="M0.07,39.62 L0.07,15.96 C0.07,11.68 1.7,7.95 4.95,4.77 C8.2,1.6 12.09,0.01 16.61,0.01 L173.29,0.01 C177.81,0.01 181.69,1.6 184.95,4.77 C188.2,7.95 189.83,11.67 189.83,15.96 L189.83,39.62 L0.07,39.62 Z M20.94,15.96 C19.68,15.96 18.64,16.35 17.82,17.12 C17.01,17.89 16.6,18.79 16.6,19.82 L16.6,23.68 L173.28,23.68 L173.28,19.82 C173.28,18.79 172.87,17.89 172.06,17.12 C171.25,16.35 170.21,15.96 168.94,15.96 L20.94,15.96 Z" id="Shape"></path>
                    <g transform="translate(0.000000, 193.000000)" id="Shape">
                        <path d="M178.75,16.04 L180.13,16.04 L180.13,5.73 L188.25,16.04 L189.38,16.04 L189.38,3.47 L188,3.47 L188,13.54 L180.08,3.47 L178.75,3.47 L178.75,16.04 Z M155.81,14.95 C152.94,14.95 150.85,12.62 150.85,9.76 L150.85,9.72 C150.85,6.86 152.9,4.57 155.77,4.57 C158.64,4.57 160.720036,6.9 160.720036,9.76 L160.720036,9.8 C160.73,12.65 158.68,14.95 155.81,14.95 M155.78,16.26 C159.6,16.26 162.21,13.23 162.21,9.76 L162.21,9.72 C162.21,6.26 159.64,3.26 155.82,3.26 C152,3.26 149.389971,6.29 149.389971,9.76 L149.389971,9.8 C149.38,13.26 151.95,16.26 155.78,16.26 M131.29,16.04 L132.71,16.04 L132.71,3.47 L131.29,3.47 L131.29,16.04 Z M109.31,16.04 L110.75,16.04 L110.75,4.78 L114.97,4.78 L114.97,3.47 L105.1,3.47 L105.1,4.78 L109.32,4.78 L109.32,16.04 L109.31,16.04 Z M82.29,11.43 L85.16,5.04 L88.02,11.43 L82.29,11.43 Z M78.79,16.04 L80.24,16.04 L81.73,12.72 L88.57,12.72 L90.04,16.04 L91.57,16.04 L85.84,3.38 L84.51,3.38 L78.79,16.04 Z M29.18,9.88 L29.18,4.78 L33.06,4.78 C35.09,4.78 36.27,5.71 36.27,7.26 L36.27,7.3 C36.27,8.92 34.92,9.89 33.04,9.89 L29.18,9.89 L29.18,9.88 Z M27.76,16.04 L29.18,16.04 L29.18,11.16 L32.77,11.16 L36.42,16.04 L38.16,16.04 L34.3,10.9 C36.28,10.54 37.71,9.32 37.71,7.24 L37.71,7.2 C37.71,6.21 37.35,5.33 36.74,4.72 C35.95,3.93 34.71,3.46 33.17,3.46 L27.77,3.46 L27.77,16.04 L27.76,16.04 Z M6.7,16.26 C8.98,16.26 10.42,15.38 11.73,14.05 L10.8,13.13 C9.6,14.28 8.47,14.94 6.74,14.94 C3.97,14.94 1.87,12.66 1.87,9.75 L1.87,9.71 C1.87,6.82 3.95,4.56 6.74,4.56 C8.45,4.56 9.63,5.28 10.69,6.28 L11.66,5.24 C10.4,4.06 9.04,3.25 6.76,3.25 C3.06,3.25 0.4,6.19 0.4,9.75 L0.4,9.79 C0.4,13.4 3.08,16.26 6.7,16.26"></path>
                        <path d="M54.29,3.61 L63.43,3.61 L63.43,4.91 L55.72,4.91 L55.72,9.23 L62.62,9.23 L62.62,10.53 L55.72,10.53 L55.72,14.96 L63.53,14.96 L63.53,16.26 L54.3,16.26 L54.3,3.61 L54.29,3.61 Z M60.11,0.16 L61.54,0.81 L59.46,2.49 L58.3,2.49 L60.11,0.16 Z"></path>
                    </g>
                </g>
            </g>
        </g>
    </g>
</svg>